<?xml version="1.0" standalone="no"?>
<!DOCTYPE svg PUBLIC "-//W3C//DTD SVG 20010904//EN"
 "http://www.w3.org/TR/2001/REC-SVG-20010904/DTD/svg10.dtd">
<svg version="1.0" xmlns="http://www.w3.org/2000/svg"
 width="140.000000pt" height="140.000000pt" viewBox="0 0 140.000000 140.000000"
 preserveAspectRatio="xMidYMid meet">
<metadata>
Created by potrace 1.11, written by Peter Selinger 2001-2013
</metadata>
<g transform="translate(0.000000,140.000000) scale(0.100000,-0.100000)"
fill="#000000" stroke="none">
<path d="M0 1391 c0 -5 6 -12 13 -14 10 -4 10 -6 0 -6 -10 -1 -13 -145 -13
-686 l0 -685 111 0 c61 0 119 5 131 11 13 7 18 7 14 1 -4 -6 2 -10 14 -9 14 1
20 8 20 24 0 13 5 23 12 23 6 0 8 -3 5 -6 -3 -4 4 -15 17 -25 23 -18 52 -19
550 -19 l526 0 0 700 0 700 -320 -1 c-194 0 -318 -4 -314 -10 6 -11 -58 -7
-67 4 -7 10 -39 -2 -39 -14 0 -5 -4 -9 -10 -9 -5 0 -10 7 -10 16 0 8 -5 12
-10 9 -6 -4 -8 -11 -5 -16 4 -5 2 -9 -4 -9 -5 0 -11 4 -13 8 -1 5 -17 12 -34
15 -26 5 -33 3 -37 -13 -7 -26 -27 -26 -27 0 0 11 -5 20 -11 20 -6 0 -9 -9 -6
-20 5 -18 0 -20 -54 -20 -33 0 -59 4 -59 10 0 6 11 8 25 6 17 -3 25 0 25 10 0
13 -28 15 -190 13 -104 -1 -190 -5 -190 -10 0 -5 12 -9 26 -9 14 0 23 -4 20
-8 -9 -15 -68 -1 -62 14 3 9 -2 14 -14 14 -11 0 -20 -4 -20 -9z m299 -15 c-5
-5 -86 -9 -119 -5 -14 1 7 5 45 8 68 6 83 5 74 -3z m276 -4 c-3 -3 -11 0 -18
7 -9 10 -8 11 6 5 10 -3 15 -9 12 -12z m332 12 c-3 -3 -12 -4 -19 -1 -8 3 -5
6 6 6 11 1 17 -2 13 -5z m-557 -14 c0 -13 -11 -13 -30 0 -12 8 -11 10 8 10 12
0 22 -4 22 -10z m655 -260 c3 -6 -1 -7 -9 -4 -18 7 -21 14 -7 14 6 0 13 -4 16
-10z m-600 -31 c11 -16 1 -19 -13 -3 -7 8 -8 14 -3 14 5 0 13 -5 16 -11z m386
-23 c-8 -10 -9 -16 -1 -21 5 -3 10 -1 10 5 0 6 4 9 10 5 17 -10 29 -74 20
-105 -8 -28 4 -54 13 -28 2 7 2 3 0 -9 -2 -13 1 -23 7 -23 5 0 10 -9 10 -20 0
-11 4 -20 9 -20 5 0 9 -11 9 -25 0 -15 -6 -25 -14 -25 -8 0 -14 8 -14 17 0 12
-3 14 -11 6 -16 -16 -2 -33 27 -33 22 0 30 -13 25 -42 0 -5 3 -8 7 -8 5 0 9
-7 9 -15 0 -8 -6 -15 -14 -15 -7 0 -13 9 -13 20 0 11 -4 20 -10 20 -5 0 -7 -6
-4 -14 4 -11 -2 -12 -28 -7 -29 6 -33 11 -33 39 0 18 -3 32 -7 32 -5 0 -8 9
-8 21 0 11 5 17 10 14 6 -4 7 -11 4 -17 -4 -7 -2 -8 4 -4 7 4 12 18 12 32 0
16 6 24 18 25 13 0 14 2 2 6 -23 9 -40 30 -40 48 0 9 -4 14 -9 11 -4 -3 -13 6
-20 21 -10 22 -10 25 5 19 10 -4 14 -2 11 6 -2 7 -10 12 -16 11 -6 -2 -11 2
-11 7 0 12 2 12 35 0 20 -8 26 -7 23 2 -3 7 -10 13 -16 13 -6 0 -21 9 -34 19
l-22 19 22 10 c12 6 22 15 22 20 0 6 3 7 6 4 4 -4 1 -13 -5 -21z m421 -13 c-9
-4 -10 -9 -3 -17 8 -9 6 -13 -4 -13 -8 0 -15 5 -15 12 0 15 22 36 29 28 3 -3
0 -8 -7 -10z m-182 -3 c0 -5 -2 -10 -4 -10 -3 0 -8 5 -11 10 -3 6 -1 10 4 10
6 0 11 -4 11 -10z m40 0 c0 -5 -4 -10 -10 -10 -5 0 -10 5 -10 10 0 6 5 10 10
10 6 0 10 -4 10 -10z m-73 -6 c-3 -3 -12 -4 -19 -1 -8 3 -5 6 6 6 11 1 17 -2
13 -5z m163 -76 c0 -16 -3 -19 -11 -11 -6 6 -8 16 -5 22 11 17 16 13 16 -11z
m-48 3 c7 10 8 8 2 -6 -4 -11 -9 -35 -12 -52 -2 -21 -10 -33 -19 -33 -11 0
-13 5 -8 18 4 9 9 28 10 42 4 40 6 46 12 31 5 -11 7 -11 15 0z m93 -35 c1 -14
-3 -22 -10 -18 -5 3 -4 -1 3 -10 10 -12 10 -17 -1 -27 -11 -8 -18 -6 -32 9
-16 17 -16 21 -2 35 9 8 22 15 29 15 9 1 7 5 -4 14 -10 7 -18 16 -18 20 0 21
35 -17 35 -38z m-139 -20 c-8 -31 -21 -34 -23 -6 -1 11 2 18 8 15 5 -4 9 -1 9
4 0 6 -5 11 -11 11 -5 0 -7 5 -3 11 11 19 27 -8 20 -35z m174 24 c0 -5 -2 -10
-4 -10 -3 0 -8 5 -11 10 -3 6 -1 10 4 10 6 0 11 -4 11 -10z m-213 -16 c8 -22
-13 -42 -29 -25 -11 10 -10 11 5 6 20 -8 23 5 5 23 -9 9 -9 12 0 12 7 0 15 -7
19 -16z m113 -16 c0 -17 3 -28 6 -25 9 8 44 -32 44 -49 0 -25 -19 -25 -26 1
-3 14 -10 25 -15 25 -5 0 -5 -10 0 -23 7 -18 5 -26 -10 -36 -15 -8 -18 -18
-13 -34 3 -12 3 -19 -2 -14 -12 11 -14 157 -2 157 6 0 8 7 4 15 -3 8 -1 15 4
15 6 0 10 -14 10 -32z m110 -11 c0 -8 -7 -14 -15 -14 -11 0 -12 4 -4 14 6 7
13 13 15 13 2 0 4 -6 4 -13z m-203 -23 c-3 -3 -12 -4 -19 -1 -8 3 -5 6 6 6 11
1 17 -2 13 -5z m-37 -14 c0 -5 -4 -10 -10 -10 -5 0 -10 5 -10 10 0 6 5 10 10
10 6 0 10 -4 10 -10z m233 4 c-7 -3 -9 -12 -6 -20 7 -20 1 -18 -20 6 -16 19
-16 20 11 19 15 0 22 -3 15 -5z m-143 -19 c0 -8 -7 -15 -15 -15 -13 0 -14 3
-3 15 16 18 18 18 18 0z m0 -45 c0 -5 -4 -10 -10 -10 -5 0 -10 5 -10 10 0 6 5
10 10 10 6 0 10 -4 10 -10z m-73 -22 c-3 -8 -6 -5 -6 6 -1 11 2 17 5 13 3 -3
4 -12 1 -19z m160 0 c-3 -8 -6 -5 -6 6 -1 11 2 17 5 13 3 -3 4 -12 1 -19z m43
12 c0 -5 -5 -10 -11 -10 -5 0 -7 5 -4 10 3 6 8 10 11 10 2 0 4 -4 4 -10z
m-403 -102 c-3 -7 -5 -2 -5 12 0 14 2 19 5 13 2 -7 2 -19 0 -25z m33 7 c0 -8
-2 -15 -4 -15 -2 0 -6 7 -10 15 -3 8 -1 15 4 15 6 0 10 -7 10 -15z m40 1 c0
-3 -4 -8 -10 -11 -5 -3 -10 -1 -10 4 0 6 5 11 10 11 6 0 10 -2 10 -4z m-467
-236 c9 -11 17 -22 17 -25 0 -3 16 -26 35 -51 47 -61 69 -104 54 -104 -6 0
-13 9 -16 20 -3 11 -12 20 -19 20 -8 0 -13 6 -12 13 2 6 -3 11 -11 9 -9 -2
-11 3 -7 13 5 14 -21 64 -44 85 -3 3 -11 13 -19 23 -19 24 1 22 22 -3z m462
-60 c-3 -5 -13 -10 -21 -10 -8 0 -14 5 -14 10 0 6 9 10 21 10 11 0 17 -4 14
-10z m-388 -112 c-3 -8 -6 -5 -6 6 -1 11 2 17 5 13 3 -3 4 -12 1 -19z m43 -28
c0 -5 -4 -10 -9 -10 -6 0 -13 5 -16 10 -3 6 1 10 9 10 9 0 16 -4 16 -10z m365
0 c3 -5 -1 -10 -9 -10 -9 0 -16 5 -16 10 0 6 4 10 9 10 6 0 13 -4 16 -10z
m-334 -51 c-5 -13 -10 -19 -10 -12 -1 15 10 45 15 40 3 -2 0 -15 -5 -28z m334
11 c3 -5 1 -10 -4 -10 -6 0 -11 5 -11 10 0 6 2 10 4 10 3 0 8 -4 11 -10z
m-824 -57 c13 -16 12 -17 -3 -4 -10 7 -18 15 -18 17 0 8 8 3 21 -13z m68 8
c12 -7 12 -13 3 -24 -7 -7 -8 -18 -4 -22 4 -5 2 -5 -5 -2 -6 4 -10 15 -9 25 2
9 -2 20 -8 24 -16 11 6 9 23 -1z m28 -43 c-3 -8 -6 -5 -6 6 -1 11 2 17 5 13 3
-3 4 -12 1 -19z m24 -21 c-6 -8 -9 -17 -6 -20 3 -4 2 -5 -2 -2 -3 3 -12 0 -19
-6 -8 -7 -14 -6 -20 2 -4 7 -3 9 4 5 6 -3 16 3 22 14 6 11 16 20 22 20 7 0 7
-4 -1 -13z m67 -35 c7 -22 -13 -12 -33 16 l-19 27 24 -16 c13 -9 26 -21 28
-27z m-37 1 c13 -16 12 -17 -3 -4 -10 7 -18 15 -18 17 0 8 8 3 21 -13z m-27
-19 c3 -8 2 -12 -4 -9 -6 3 -10 10 -10 16 0 14 7 11 14 -7z m61 -14 c3 -6 -1
-7 -9 -4 -18 7 -21 14 -7 14 6 0 13 -4 16 -10z"/>
<path d="M835 840 c-3 -5 -1 -10 4 -10 6 0 11 5 11 10 0 6 -2 10 -4 10 -3 0
-8 -4 -11 -10z"/>
<path d="M441 1383 c0 -13 2 -14 6 -4 4 10 7 10 13 1 5 -8 9 -7 13 4 5 11 1
16 -13 16 -13 0 -20 -6 -19 -17z"/>
<path d="M305 10 c3 -5 8 -10 11 -10 2 0 4 5 4 10 0 6 -5 10 -11 10 -5 0 -7
-4 -4 -10z"/>
</g>
</svg>
